<svg xmlns="http://www.w3.org/2000/svg" xmlns:xlink="http://www.w3.org/1999/xlink" viewBox="0 0 420.01 446.92">
  <defs>
    <style>
      .cls-1 {
        fill: none;
      }

      .cls-2 {
        fill: #fff;
      }

      .cls-3 {
        fill: url(#linear-gradient);
      }

      .cls-4 {
        fill: url(#linear-gradient-2);
      }

      .cls-5 {
        fill: url(#linear-gradient-3);
      }

      .cls-6 {
        fill: url(#linear-gradient-4);
      }

      .cls-7 {
        clip-path: url(#clip-path);
      }

      .cls-8 {
        fill: url(#linear-gradient-5);
      }

      .cls-11, .cls-12, .cls-13, .cls-14, .cls-15, .cls-16, .cls-17, .cls-18, .cls-9 {
        opacity: 0.2;
      }

      .cls-9 {
        fill: url(#linear-gradient-6);
      }

      .cls-10 {
        opacity: 0.5;
      }

      .cls-11 {
        fill: url(#linear-gradient-7);
      }

      .cls-12 {
        fill: url(#linear-gradient-8);
      }

      .cls-13 {
        fill: url(#linear-gradient-9);
      }

      .cls-14 {
        fill: url(#linear-gradient-10);
      }

      .cls-15 {
        fill: url(#linear-gradient-11);
      }

      .cls-16 {
        fill: url(#linear-gradient-12);
      }

      .cls-17 {
        fill: url(#linear-gradient-13);
      }

      .cls-18 {
        fill: url(#linear-gradient-14);
      }
    </style>
    <linearGradient id="linear-gradient" x1="111.83" y1="86.49" x2="279.42" y2="454.24" gradientUnits="userSpaceOnUse">
      <stop offset="0" stop-color="#f89f43"/>
      <stop offset="1" stop-color="#eb2f94"/>
    </linearGradient>
    <linearGradient id="linear-gradient-2" x1="303.36" y1="-5.42" x2="478.36" y2="378.58" xlink:href="#linear-gradient"/>
    <linearGradient id="linear-gradient-3" x1="71.98" y1="108.9" x2="232.78" y2="461.74" xlink:href="#linear-gradient"/>
    <linearGradient id="linear-gradient-4" x1="142.54" y1="67.87" x2="317.51" y2="451.79" xlink:href="#linear-gradient"/>
    <clipPath id="clip-path">
      <path class="cls-1" d="M284,26.93h-29.5c-22.69.16-23.32,23.3-23.32,23.3l-.06-.41v109a68.07,68.07,0,0,1,47.22,64.8v69.46a13.62,13.62,0,1,1-27.23,0V238.42a13.62,13.62,0,1,0-27.23,0v54.66a13.62,13.62,0,1,1-27.23,0V238.42a13.62,13.62,0,1,0-27.23,0v54.66a13.62,13.62,0,1,1-27.23,0V223.62A68.09,68.09,0,0,1,188.85,159V50l0,.2s-.64-23.6-24-23.29c-2.13,0-9-.18-16.83,0C57.24,50.13,0,133.15,0,231.12c0,116,94,210,210,210s210-94,210-210c0-89.05-42.42-204.18-126.41-204.18C281.07,26.94,293,26,284,26.93ZM210,399.47c-92.83,0-168.35-75.52-168.35-168.35A167.07,167.07,0,0,1,92.46,110.59a11,11,0,0,1,15.36,15.75A145.22,145.22,0,0,0,63.64,231.12c0,80.7,65.65,146.35,146.35,146.35a11,11,0,0,1,0,22Zm146.79-85.86A168.5,168.5,0,0,1,319,359.46a11,11,0,0,1-14.24-16.77,146.67,146.67,0,0,0,32.9-39.87,11,11,0,1,1,19.17,10.79Zm10.56-71.49a11,11,0,0,1-11-11,145.53,145.53,0,0,0-25-81.81A11,11,0,1,1,349.58,137a167.48,167.48,0,0,1,28.76,94.13A11,11,0,0,1,367.34,242.12Z"/>
    </clipPath>
    <linearGradient id="linear-gradient-5" x1="209.99" y1="-327.64" x2="209.99" y2="235.05" gradientUnits="userSpaceOnUse">
      <stop offset="0.45" stop-color="#ff3d00"/>
      <stop offset="1" stop-color="#e35600" stop-opacity="0"/>
    </linearGradient>
    <linearGradient id="linear-gradient-6" x1="209.99" y1="218.67" x2="209.99" y2="264.74" gradientUnits="userSpaceOnUse">
      <stop offset="0.04" stop-color="#271f44"/>
      <stop offset="1" stop-color="#271f44" stop-opacity="0"/>
    </linearGradient>
    <linearGradient id="linear-gradient-7" x1="329.51" y1="294" x2="329.51" y2="544.04" xlink:href="#linear-gradient-6"/>
    <linearGradient id="linear-gradient-8" x1="353.9" y1="294" x2="353.9" y2="544.04" xlink:href="#linear-gradient-6"/>
    <linearGradient id="linear-gradient-9" x1="131.31" y1="294" x2="131.31" y2="544.04" xlink:href="#linear-gradient-6"/>
    <linearGradient id="linear-gradient-10" x1="169.36" y1="24" x2="169.36" y2="49.18" xlink:href="#linear-gradient-6"/>
    <linearGradient id="linear-gradient-11" x1="251.86" y1="24" x2="251.86" y2="49.18" xlink:href="#linear-gradient-6"/>
    <linearGradient id="linear-gradient-12" x1="155.53" y1="292.67" x2="155.53" y2="333.47" xlink:href="#linear-gradient-6"/>
    <linearGradient id="linear-gradient-13" x1="209.99" y1="292.67" x2="209.99" y2="333.47" xlink:href="#linear-gradient-6"/>
    <linearGradient id="linear-gradient-14" x1="264.45" y1="292.67" x2="264.45" y2="333.47" xlink:href="#linear-gradient-6"/>
  </defs>
  <title>icon</title>
  <g id="Layer_2" data-name="Layer 2">
    <g id="Layer_1-2" data-name="Layer 1">
      <g>
        <path class="cls-2" d="M346.44,420.5H72.38A45.18,45.18,0,0,1,27.2,375.31V110.18a83.24,83.24,0,0,1,83.24-83.24H325.62A70.56,70.56,0,0,1,396.18,97.5V370.76A49.74,49.74,0,0,1,346.44,420.5Z"/>
        <path class="cls-3" d="M0,306v46a95,95,0,0,0,95,94.95H325A95,95,0,0,0,420,352V231.12L388.32,289l-21,51-89,65L210,426,105.32,395l-56-65.36-30-82.81L0,242.12Z"/>
        <path class="cls-4" d="M254.32,26.94H325a95,95,0,0,1,95,95V231.12l-54.66-96.59L276.32,56l-18-11-4-18.06"/>
        <path class="cls-5" d="M0,242.12V121.89A95,95,0,0,1,95,26.94h72.37L142.32,67,68.89,94,25.32,182"/>
        <path class="cls-6" d="M290.76,27.07c-2.59-.47-33.7-.12-35.88-.13-23.06-.09-23.69,23.3-23.69,23.3l-.06-.41v109a68.07,68.07,0,0,1,47.22,64.8v69.46a13.62,13.62,0,1,1-27.23,0V238.42a13.62,13.62,0,1,0-27.23,0v54.66a13.62,13.62,0,1,1-27.23,0V238.42a13.62,13.62,0,1,0-27.23,0v54.66a13.62,13.62,0,0,1-13.62,13.62h0a13.62,13.62,0,0,1-13.61-13.62V223.62A68.09,68.09,0,0,1,188.85,159V50l0,.2s-.76-28.09-31-22.58C67.1,50.85,0,133.15,0,231.12c0,116,94,210,210,210s208.79-94,210-210C421,132.18,394.32,48.67,290.76,27.07ZM210,399.47c-92.83,0-168.35-75.52-168.35-168.35A167.07,167.07,0,0,1,92.46,110.59a11,11,0,0,1,15.36,15.75A145.22,145.22,0,0,0,63.64,231.12c0,80.7,65.65,146.35,146.35,146.35a11,11,0,0,1,0,22Zm146.79-85.86A168.5,168.5,0,0,1,319,359.46a11,11,0,0,1-14.24-16.77,146.67,146.67,0,0,0,32.9-39.87,11,11,0,1,1,19.17,10.79Zm10.56-71.49a11,11,0,0,1-11-11,145.53,145.53,0,0,0-25-81.81A11,11,0,1,1,349.58,137a167.48,167.48,0,0,1,28.76,94.13A11,11,0,0,1,367.34,242.12Z"/>
        <g class="cls-7">
          <circle class="cls-8" cx="209.99" cy="231.03" r="168.35"/>
          <path class="cls-9" d="M210,168.66h0a68.08,68.08,0,0,0-68.08,68.08l27.23,14.79a13.62,13.62,0,0,1,13.62-13.61h0a13.61,13.61,0,0,1,13.61,13.61H223.6a13.62,13.62,0,0,1,13.62-13.61h0a13.62,13.62,0,0,1,13.62,13.61l27.23-14.79A68.08,68.08,0,0,0,210,168.66Z"/>
          <g class="cls-10">
            <path class="cls-11" d="M311.84,370.61a11,11,0,0,1-7.13-19.39,146.67,146.67,0,0,0,32.9-39.87,11,11,0,1,1,19.17,10.79A168.65,168.65,0,0,1,319,368,11,11,0,0,1,311.84,370.61Z"/>
            <path class="cls-12" d="M367.34,250.65a11,11,0,0,1-11-11,145.56,145.56,0,0,0-25-81.81,11,11,0,1,1,18.23-12.32,167.48,167.48,0,0,1,28.76,94.13A11,11,0,0,1,367.34,250.65Z"/>
            <path class="cls-13" d="M210,408c-92.83,0-168.35-75.52-168.35-168.35A167.07,167.07,0,0,1,92.46,119.12a11,11,0,0,1,15.36,15.75A145.24,145.24,0,0,0,63.64,239.65C63.64,320.35,129.29,386,210,386a11,11,0,0,1,0,22Z"/>
          </g>
          <path class="cls-14" d="M189.56,63.52s-.74-36.58-49-36.58L198.15,0Z"/>
          <path class="cls-15" d="M231.25,63.52s3.82-36.58,49.82-36.58L222.65,0Z"/>
          <g>
            <path class="cls-16" d="M141.91,258v48.2a13.62,13.62,0,0,0,13.62,13.62h0a13.61,13.61,0,0,0,13.61-13.62V258Z"/>
            <path class="cls-17" d="M196.37,258v48.2A13.62,13.62,0,0,0,210,319.82h0A13.61,13.61,0,0,0,223.6,306.2V258Z"/>
            <path class="cls-18" d="M250.84,258v48.2a13.61,13.61,0,0,0,13.61,13.62h0a13.62,13.62,0,0,0,13.62-13.62V258Z"/>
          </g>
        </g>
      </g>
    </g>
  </g>
</svg>
